<svg width="1200" height="630" viewBox="0 0 1200 630" fill="none" xmlns="http://www.w3.org/2000/svg">
  <defs>
    <linearGradient id="bg" x1="0" y1="0" x2="1" y2="1">
      <stop offset="0%" stop-color="#0B0F1A" />
      <stop offset="100%" stop-color="#1A2A3A" />
    </linearGradient>
    <linearGradient id="accent" x1="0" y1="0" x2="1" y2="0">
      <stop offset="0%" stop-color="#F97316" />
      <stop offset="100%" stop-color="#FACC15" />
    </linearGradient>
  </defs>
  <rect width="1200" height="630" fill="url(#bg)" />
  <circle cx="190" cy="110" r="180" fill="#1F2D3A" opacity="0.6" />
  <circle cx="1040" cy="520" r="220" fill="#101622" opacity="0.7" />
  <rect x="90" y="210" width="1020" height="6" rx="3" fill="url(#accent)" />
  <text x="90" y="170" fill="#F8FAFC" font-size="56" font-family="sans-serif" font-weight="700">Airing Calendar</text>
  <text x="90" y="255" fill="#CBD5F5" font-size="28" font-family="sans-serif" font-weight="500">
    Weekly anime schedule in your local time zone
  </text>
  <g transform="translate(90 330)">
    <rect width="260" height="180" rx="16" fill="#111827" />
    <rect x="24" y="32" width="100" height="12" rx="6" fill="#334155" />
    <rect x="24" y="60" width="160" height="12" rx="6" fill="#475569" />
    <rect x="24" y="100" width="80" height="12" rx="6" fill="#64748B" />
  </g>
  <g transform="translate(390 330)">
    <rect width="260" height="180" rx="16" fill="#111827" />
    <rect x="24" y="32" width="120" height="12" rx="6" fill="#334155" />
    <rect x="24" y="60" width="150" height="12" rx="6" fill="#475569" />
    <rect x="24" y="100" width="90" height="12" rx="6" fill="#64748B" />
  </g>
  <g transform="translate(690 330)">
    <rect width="260" height="180" rx="16" fill="#111827" />
    <rect x="24" y="32" width="110" height="12" rx="6" fill="#334155" />
    <rect x="24" y="60" width="140" height="12" rx="6" fill="#475569" />
    <rect x="24" y="100" width="70" height="12" rx="6" fill="#64748B" />
  </g>
</svg>
